<svg xmlns="http://www.w3.org/2000/svg" viewBox="0 0 1000 1000" width="80mm" height="80mm"><title>netc-patch-main-english-80mm-cream</title><rect width="1000" height="1000" fill="#23325E"/><rect x="64" y="64" width="872" height="872" fill="#F1E9D8"/><circle cx="566.2" cy="239.0" r="70.1" fill="#E3A21A"/><path d="M231.2 574.1C355.8 574.1 418.2 410.5 550.6 410.5H589.6" fill="none" stroke="#C9372C" stroke-width="62.3" stroke-linecap="round"/><circle cx="683.1" cy="410.5" r="31.2" fill="#C9372C"/><circle cx="768.8" cy="410.5" r="31.2" fill="#C9372C"/><path d="M155.0 740.601763907734V692.4019466674051H167.7505330490405L192.69113615595492 714.8905241879655Q193.32165702101736 715.4509871791322 194.33749619250685 716.4317974136737Q195.35333536399634 717.4126076482153 196.43923240938165 718.4634757566528Q197.52512945476698 719.5143438650902 198.2957660676211 720.4250962257358H198.92628693268352Q198.92628693268352 719.164054495611 198.8912579957356 717.2724919004237Q198.8562290587877 715.3809293052364 198.8562290587877 713.909713953424V692.4019466674051H212.30734084678647V740.601763907734H199.76698141943345L175.38684130368566 718.6035915044444Q173.7054523301858 717.132376152632 171.8839476088943 715.3108714313405Q170.0624428876028 713.489366710049 168.94151690526957 712.4384986016116H168.38105391410295Q168.38105391410295 713.3492509622573 168.41608285105087 715.3809293052364Q168.4511117879988 717.4126076482153 168.4511117879988 719.7245174867776V740.601763907734Z M224.21717940907706 740.601763907734V692.4019466674051H274.37861711848916V702.9806856256749H238.50898568382576V711.1073989975908H269.8949131891562V721.3358485863816H238.50898568382576V730.0230249494641H274.93908010965583V740.601763907734Z M302.82211392019497 740.601763907734 279.6329576606762 692.4019466674051H295.4660371611331L305.9747182455072 715.8713344225071Q306.67529698446543 717.2024340265278 307.4459335973195 719.1990834325588Q308.2165702101736 721.19573283859 309.05726469692354 723.2274111815689Q309.8979591836735 725.2590895245479 310.45842217484005 726.870420624152H310.9488272921109Q311.5092902832775 725.3992052723396 312.2448979591837 723.4375848032564Q312.98050563508986 721.4759643341732 313.82120012183975 719.4793149281422Q314.6618946085897 717.4826655221111 315.36247334754796 715.8713344225071L326.0112701797137 692.4019466674051H341.2138288151081L317.95461468169356 740.601763907734Z M348.00944258300336 740.601763907734V692.4019466674051H398.1708802924155V702.9806856256749H362.30124885775206V711.1073989975908H393.6871763630826V721.3358485863816H362.30124885775206V730.0230249494641H398.7313432835821V740.601763907734Z M408.46938775510205 740.601763907734V692.4019466674051H448.5424916235151Q453.7968321657021 692.4019466674051 457.22966798659763 694.5737407581757Q460.6625038074932 696.7455348489464 462.4139506548888 700.2834574806857Q464.1653975022845 703.8213801124249 464.1653975022845 708.0248525461745Q464.1653975022845 712.5786143494032 461.99360341151385 716.32671060283Q459.8218093207432 720.0748068562567 455.47822113920193 722.2466009470273L465.28632348461775 740.601763907734H449.1730124885775L441.18641486445324 724.5585107855896H422.69113615595495V740.601763907734ZM422.69113615595495 714.0498297012156H443.8486140724947Q446.4407554066403 714.0498297012156 447.9820286323485 712.5085564755075Q449.52330185805664 710.9672832497993 449.52330185805664 708.3751419156537Q449.52330185805664 706.6937529421538 448.8227231190984 705.4677401489769Q448.1221443801401 704.2417273557999 446.86110265001525 703.6112064907375Q445.6000609198903 702.9806856256749 443.8486140724947 702.9806856256749H422.69113615595495Z M495.0609198903442 740.601763907734V692.4019466674051H545.2223575997564V702.9806856256749H509.3527261650929V711.1073989975908H540.7386536704234V721.3358485863816H509.3527261650929V730.0230249494641H545.7828205909229V740.601763907734Z M555.5208650624429 740.601763907734V692.4019466674051H568.2713981114834L593.2120012183979 714.8905241879655Q593.8425220834603 715.4509871791322 594.8583612549498 716.4317974136737Q595.8742004264393 717.4126076482153 596.9600974718246 718.4634757566528Q598.0459945172099 719.5143438650902 598.816631130064 720.4250962257358H599.4471519951264Q599.4471519951264 719.164054495611 599.4121230581785 717.2724919004237Q599.3770941212306 715.3809293052364 599.3770941212306 713.909713953424V692.4019466674051H612.8282059092294V740.601763907734H600.2878464818764L575.9077063661285 718.6035915044444Q574.2263173926287 717.132376152632 572.4048126713373 715.3108714313405Q570.5833079500458 713.489366710049 569.4623819677125 712.4384986016116H568.9019189765459Q568.9019189765459 713.3492509622573 568.9369479134938 715.3809293052364Q568.9719768504417 717.4126076482153 568.9719768504417 719.7245174867776V740.601763907734Z M624.73804447152 740.601763907734V692.4019466674051H651.6402680475176Q660.5376180322876 692.4019466674051 666.9829424307036 695.2042616232382Q673.4282668291197 698.0065765790712 676.8611026500153 703.4010328690499Q680.2939384709108 708.7954891590285 680.2939384709108 716.5018552875696Q680.2939384709108 724.2782792900064 676.8611026500153 729.6377066430371Q673.4282668291197 734.9971339960679 666.9829424307036 737.799448951901Q660.5376180322876 740.601763907734 651.6402680475176 740.601763907734ZM638.9597928723729 730.0230249494641H650.7995735607676Q654.1623515077673 730.0230249494641 656.8595796527566 729.1473015257664Q659.5568077977459 728.2715781020685 661.5184282668291 726.6602470024645Q663.4800487359123 725.0489159028605 664.5659457812976 722.6669481904023Q665.6518428266829 720.2849804779443 665.6518428266829 717.2724919004237V715.6611608008196Q665.6518428266829 712.6486722232991 664.5659457812976 710.3017334477888Q663.4800487359123 707.9547946722787 661.5184282668291 706.3434635726746Q659.5568077977459 704.7321324730706 656.8595796527566 703.8564090493728Q654.1623515077673 702.9806856256749 650.7995735607676 702.9806856256749H638.9597928723729Z M690.1020408163265 740.601763907734V692.4019466674051H704.3237892171794V740.601763907734Z M716.23362777947 740.601763907734V692.4019466674051H728.9841608285105L753.924763935425 714.8905241879655Q754.5552848004874 715.4509871791322 755.5711239719769 716.4317974136737Q756.5869631434664 717.4126076482153 757.6728601888517 718.4634757566528Q758.758757234237 719.5143438650902 759.5293938470911 720.4250962257358H760.1599147121535Q760.1599147121535 719.164054495611 760.1248857752056 717.2724919004237Q760.0898568382577 715.3809293052364 760.0898568382577 713.909713953424V692.4019466674051H773.5409686262565V740.601763907734H761.0006091989035L736.6204690831556 718.6035915044444Q734.9390801096558 717.132376152632 733.1175753883643 715.3108714313405Q731.2960706670729 713.489366710049 730.1751446847396 712.4384986016116H729.614681693573Q729.614681693573 713.3492509622573 729.6497106305209 715.3809293052364Q729.6847395674688 717.4126076482153 729.6847395674688 719.7245174867776V740.601763907734Z M812.6332622601279 741.442458394484Q797.9911666159 741.442458394484 790.6701187937862 735.2773654916512Q783.3490709716723 729.1122725888184 783.3490709716723 716.5018552875696Q783.3490709716723 708.3050840417578 787.1672250989948 702.7354830670396Q790.9853792263174 697.1658820923213 798.2013402375876 694.3635671364882Q805.4173012488577 691.5612521806552 815.5056350898568 691.5612521806552Q821.7407858665854 691.5612521806552 827.1002132196162 692.7172070999363Q832.459640572647 693.8731620192175 836.487968321657 696.115013983884Q840.5162960706671 698.3568659485504 842.7231190983856 701.754672832498Q844.9299421261042 705.1524797164456 844.9299421261042 709.7062415196743H831.0584830947304Q831.0584830947304 707.7446210505911 829.8324703015535 706.3084346357267Q828.6064575083765 704.8722482208623 826.5047212915017 703.9614958602165Q824.4029850746268 703.0507434995708 821.7407858665854 702.5953673192479Q819.078586658544 702.139991138925 816.1361559549193 702.139991138925Q811.9326835211697 702.139991138925 808.56990557417 702.9806856256749Q805.2071276271703 703.8213801124249 802.8251599147122 705.5377980228727Q800.4431922022541 707.2542159333204 799.2171794090771 709.7762993935702Q797.9911666159 712.2983828538199 797.9911666159 715.6611608008196V717.3425497743194Q797.9911666159 722.1064851992357 799.9527870849832 725.0839448398084Q801.9144075540664 728.061404480381 805.6975327444411 729.4625619582976Q809.4806579348157 730.8637194362141 814.9451720986903 730.8637194362141Q819.9192811452939 730.8637194362141 823.527261650929 729.9879960125163Q827.1352421565641 729.1122725888184 829.0618336886994 727.3608257414228Q830.9884252208346 725.609378894027 830.9884252208346 723.2974690554647V722.8771218120899H814.1745354858361V713.6995403317364H845.0V740.601763907734H836.6631130063965L835.3320134023759 734.8570182482762Q832.5997563204386 737.0988702129426 829.1318915625952 738.5700855647551Q825.6640268047518 740.0413009165675 821.530612244898 740.7418796555257Q817.3971976850441 741.442458394484 812.6332622601279 741.442458394484Z" fill="#23325E"/><path d="M254.30703624733474 815.0943012211669V778.3839752997536H233.42978982637828V766.894483980838H289.4760889430399V778.3839752997536H268.59884252208343V815.0943012211669Z M297.112397197685 815.0943012211669V766.894483980838H337.1855010660981Q342.43984160828506 766.894483980838 345.8726774291806 769.0662780716086Q349.30551325007616 771.2380721623792 351.0569600974718 774.7759947941186Q352.8084069448675 778.3139174258578 352.8084069448675 782.5173898596074Q352.8084069448675 787.0711516628361 350.6366128540968 790.8192479162628Q348.4648187633262 794.5673441696896 344.1212305817849 796.7391382604602L353.92933292720073 815.0943012211669H337.8160219311605L329.8294243070362 799.0510480990225H311.33414559853793V815.0943012211669ZM311.33414559853793 788.5423670146484H332.49162351507766Q335.08376484922326 788.5423670146484 336.62503807493147 787.0010937889404Q338.1663113006396 785.4598205632321 338.1663113006396 782.8676792290865Q338.1663113006396 781.1862902555866 337.46573256168136 779.9602774624097Q336.7651538227231 778.7342646692327 335.50411209259823 778.1037438041703Q334.2430703624733 777.4732229391078 332.49162351507766 777.4732229391078H311.33414559853793Z M357.50228449588786 815.0943012211669 381.1818458726774 766.894483980838H397.08498324703015L420.7645446238197 815.0943012211669H405.2817544928419L401.6387450502589 807.387935092626H375.85744745659457L372.21443801401153 815.0943012211669ZM380.6213828815108 796.9493118821478H396.87480962534266L392.53122144380137 787.1412095367319Q392.2509899482181 786.5106886716695 391.7605848309473 785.2846758784925Q391.2701797136765 784.0586630853155 390.7097167225099 782.6925345443469Q390.14925373134326 781.3264060033783 389.7289064879683 780.1704510840972Q389.3085592445933 779.014496164816 389.02832774901003 778.4540331736493H388.53792263173926Q388.04751751446844 779.7150749037743 387.3469387755102 781.3964638772741Q386.6463600365519 783.077852850774 386.0508681084374 784.6191260764822Q385.45537618032284 786.1603993021904 384.9649710630521 787.1412095367319Z M427.77033201340237 815.0943012211669V766.894483980838H441.99208041425527V815.0943012211669Z M453.9019189765458 815.0943012211669V766.894483980838H468.1236673773987V803.6048099022513H499.0892476393542V815.0943012211669Z M556.1864148644531 815.9349957079169Q546.098081023454 815.9349957079169 539.3725251294547 813.0976518151358Q532.6469692354553 810.2603079223549 529.2841912884556 804.7257358845845Q525.921413341456 799.1911638468142 525.921413341456 790.9943926010025Q525.921413341456 779.014496164816 533.6628084069448 772.5341428294521Q541.4042034724337 766.053789494088 556.256472738349 766.053789494088Q564.5233018580566 766.053789494088 570.828510508681 768.5408440173899Q577.1337191593054 771.0278985406917 580.6716417910447 775.5466314069726Q584.209564422784 780.0653642732534 584.209564422784 786.2304571760862H570.3381053914102Q570.3381053914102 783.2179685985657 568.5516296070666 781.0812034447429Q566.765153822723 778.9444382909202 563.5424916235149 777.788483371639Q560.3198294243069 776.6325284523579 556.0462991166615 776.6325284523579Q551.0021321961619 776.6325284523579 547.5692963752665 778.3489463628057Q544.136460554371 780.0653642732534 542.3499847700273 783.077852850774Q540.5635089856837 786.0903414282946 540.5635089856837 790.0836402403567V791.8350870877523Q540.5635089856837 795.8283858998145 542.3499847700273 798.8759034142829Q544.136460554371 801.9234209287514 547.5342674383185 803.6398388391992Q550.9320743222661 805.356256749647 555.836125494974 805.356256749647Q560.4599451720986 805.356256749647 563.7876941821504 804.2703597042616Q567.1154431922022 803.1844626588763 568.9019189765457 801.0827264420016Q570.6883947608893 798.9809902251267 570.6883947608893 796.038559521502H584.2796222966798Q584.2796222966798 801.9934788026472 580.8467864757843 806.4771827319802Q577.4139506548887 810.9608866613131 571.1437709412122 813.447941184615Q564.8735912275357 815.9349957079169 556.1864148644531 815.9349957079169Z M594.0176667681998 815.0943012211669V766.894483980838H608.2394151690527V803.6048099022513H639.2049954310082V815.0943012211669Z M671.9920804142553 815.9349957079169Q662.4642095644228 815.9349957079169 656.2290587876942 813.1677096890317Q649.9939080109656 810.4004236701466 646.9113615595493 805.1110541910116Q643.8288151081329 799.8216847118766 643.8288151081329 792.395550078919V766.894483980838H658.0505635089856V791.7650292138566Q658.0505635089856 798.2103536122726 661.6935729515687 801.7833051809598Q665.3365823941517 805.356256749647 671.9920804142553 805.356256749647Q678.6475784343588 805.356256749647 682.2905878769418 801.7833051809598Q685.9335973195248 798.2103536122726 685.9335973195248 791.7650292138566V766.894483980838H700.2254035942735V792.395550078919Q700.2254035942735 799.8216847118766 697.1428571428571 805.1110541910116Q694.0603106914408 810.4004236701466 687.7901309777642 813.1677096890317Q681.5199512640877 815.9349957079169 671.9920804142553 815.9349957079169Z M711.8550106609807 815.0943012211669V766.894483980838H751.437709412123Q755.3609503502893 766.894483980838 758.5135546756014 768.4007282695982Q761.6661590009137 769.9069725583585 763.5226926591531 772.5691717663999Q765.3792263173925 775.2313709744413 765.3792263173925 778.8043225431286Q765.3792263173925 781.9569268684407 764.2583003350593 784.1987788331072Q763.137374352726 786.4406307977737 761.2107828205908 787.8417882756902Q759.2841912884556 789.2429457536067 756.9722814498933 789.9435244925651V790.2237559881484Q759.7045385318305 790.7842189793149 761.8763326226012 792.2204053941794Q764.0481267133719 793.6565918090439 765.3091684434967 796.1086173953978Q766.5702101736216 798.5606429817517 766.5702101736216 802.0635366765431Q766.5702101736216 806.1969512363969 764.5735607675906 809.1043530030737Q762.5769113615595 812.0117547697505 759.2141334145598 813.5530279954587Q755.8513554675601 815.0943012211669 751.6478830338104 815.0943012211669ZM726.0767590618336 804.935909506272H746.8839476088942Q749.1257995735607 804.935909506272 750.5269570514772 803.7098967130951Q751.9281145293937 802.4838839199181 751.9281145293937 799.9618004596683Q751.9281145293937 798.6307008556475 751.3326226012792 797.5798327472102Q750.7371306731648 796.5289646387728 749.5461468169357 795.9334727106582Q748.3551629607066 795.3379807825437 746.6737739872067 795.3379807825437H726.0767590618336ZM726.0767590618336 785.9502256805029H745.6929637526652Q747.3042948522692 785.9502256805029 748.4252208346024 785.3547337523884Q749.5461468169357 784.7592418242739 750.1766676819981 783.7083737158364Q750.8071885470605 782.657505607399 750.8071885470605 781.1862902555866Q750.8071885470605 779.1546119126077 749.406031069144 777.9285991194307Q748.0048735912275 776.7025863262537 745.9031373743526 776.7025863262537H726.0767590618336Z" fill="#23325E"/></svg>